<svg width="120" height="45" viewBox="0 0 120 45" fill="none" xmlns="http://www.w3.org/2000/svg">
<path d="M30.4933 5.10533H37.2206V23.2802C38.1001 24.146 38.9099 25.0799 39.6425 26.0731C39.7562 26.0394 39.8662 25.9946 39.9711 25.9393C40.2708 25.7852 40.5225 25.5518 40.6987 25.2645C40.8749 24.9772 40.9689 24.647 40.9704 24.31V3.25414C40.9703 3.01017 40.9218 2.76864 40.8276 2.5436C40.7334 2.31855 40.5954 2.11448 40.4216 1.94323L40.3725 1.90427C40.2521 1.79322 40.117 1.6992 39.9711 1.62482C39.7326 1.49905 39.4697 1.42625 39.2005 1.41141C39.1649 1.41141 39.131 1.40125 39.0955 1.40125H28.6183C28.2452 1.40044 27.8802 1.51069 27.57 1.71797C27.3159 1.88572 27.1075 2.11386 26.9632 2.38195C26.819 2.65004 26.7435 2.94971 26.7434 3.25414V17.2694C28.0293 17.6147 29.2837 18.0679 30.4933 18.6243V5.10533Z" fill="#F2D4AE"/>
<path d="M26.7434 28.0714V42.7929C26.7448 43.0377 26.7943 43.2798 26.8893 43.5055C26.9843 43.7311 27.1228 43.9358 27.2969 44.1079C27.471 44.28 27.6773 44.4161 27.9041 44.5084C28.1308 44.6006 28.3735 44.6473 28.6183 44.6458H34.3396C34.102 44.0569 33.9795 43.4279 33.9788 42.7929V40.94H30.4933V30.9473C29.4214 29.7764 28.1522 28.803 26.7434 28.0714Z" fill="#F2D4AE"/>
<path d="M14.166 17.2862V3.25408C14.1666 3.12835 14.1541 3.00291 14.1287 2.87977C14.0877 2.69769 14.0192 2.52292 13.9255 2.3615C13.8896 2.29554 13.85 2.23164 13.8069 2.17012C13.6794 1.99262 13.5211 1.83945 13.3394 1.71791C13.0483 1.52559 12.7093 1.41825 12.3605 1.40796C12.3368 1.40796 12.3148 1.40796 12.291 1.40796H1.87491C1.5018 1.40745 1.13694 1.51768 0.826517 1.72468C0.572695 1.89266 0.364391 2.12084 0.220177 2.38888C0.075962 2.65692 0.000319005 2.95648 0 3.26085V23.9441C0.00391908 24.3819 0.1619 24.8043 0.446214 25.1373C0.730529 25.4702 1.12301 25.6924 1.5548 25.7648C2.22968 24.885 2.96541 24.0536 3.75658 23.2768V5.10527H10.4229V18.6547C11.63 18.0943 12.8821 17.6365 14.166 17.2862Z" fill="#F2D4AE"/>
<path d="M14.1368 43.0828C14.1542 42.9872 14.1639 42.8903 14.1656 42.7932V28.1022C12.7544 28.8449 11.4851 29.8304 10.4158 31.0136V40.9403H6.98951V42.7932C6.98883 43.4282 6.86637 44.0572 6.62875 44.6461H12.2907C12.7341 44.6478 13.1636 44.4913 13.502 44.2048C13.8404 43.9183 14.0655 43.5204 14.1368 43.0828Z" fill="#F2D4AE"/>
<path d="M14.166 20.628C11.8255 21.3818 9.63893 22.5485 7.70964 24.0729C7.53011 24.2152 7.35058 24.3625 7.17613 24.5116C7.09144 24.5827 7.00676 24.6538 6.92377 24.7267C5.56476 25.915 4.36882 27.2778 3.36704 28.7796C1.51523 31.5514 0.387342 34.7429 0.0863794 38.0627C0.0321816 38.6623 0 39.2652 0 39.8783V42.7932C0.00133033 43.038 0.0508963 43.2801 0.145861 43.5058C0.240826 43.7314 0.379331 43.9361 0.553455 44.1082C0.727579 44.2803 0.93391 44.4163 1.16065 44.5086C1.3874 44.6009 1.6301 44.6476 1.87491 44.6461C1.94305 44.6411 2.01089 44.6326 2.07815 44.6207C2.13743 44.6207 2.1984 44.6207 2.24752 44.6037C2.29664 44.5868 2.34914 44.5715 2.40164 44.5563C2.45414 44.541 2.53714 44.5207 2.59981 44.4953C2.66247 44.4699 2.67263 44.4547 2.70989 44.436C2.78177 44.4035 2.85138 44.3662 2.91822 44.3243C2.96056 44.2955 2.99613 44.2599 3.03509 44.2294C3.09384 44.1884 3.15038 44.1443 3.20445 44.0973C3.23663 44.0651 3.26373 44.0262 3.29421 43.9906C3.34382 43.9369 3.39019 43.8804 3.4331 43.8212C3.51778 43.6638 3.51778 43.6638 3.6025 43.5062C3.62618 43.4486 3.63973 43.3877 3.65836 43.3284C3.67699 43.2691 3.69901 43.2166 3.71086 43.159C3.73673 43.0359 3.74978 42.9105 3.74981 42.7847V39.8783C3.75137 39.1624 3.79946 38.4473 3.89377 37.7375C4.08602 36.2587 4.48098 34.8134 5.0675 33.4424C5.17251 33.1951 5.28542 32.9512 5.40624 32.7107C5.68448 32.1446 5.99493 31.595 6.33607 31.0644C6.53084 30.7613 6.73408 30.4632 6.94749 30.1736C7.0237 30.0685 7.09992 29.9669 7.17952 29.8653C7.48099 29.4741 7.79771 29.0947 8.13306 28.7322C10.0576 26.6557 12.4751 25.0984 15.1615 24.2046C17.848 23.3108 20.7165 23.1094 23.5015 23.619C24.6107 23.8187 25.6968 24.1302 26.7432 24.5488C29.4994 25.6458 31.9129 27.4582 33.7348 29.7992C35.5391 32.1011 36.6931 34.8448 37.0764 37.7443C37.1707 38.454 37.2188 39.1691 37.2204 39.8851V42.7999C37.2204 42.9257 37.2334 43.0512 37.2593 43.1743C37.2712 43.2318 37.2949 43.286 37.3118 43.3436C37.3288 43.4012 37.344 43.4639 37.3677 43.5215C37.3937 43.5758 37.4231 43.6284 37.4558 43.679C37.4846 43.7315 37.5083 43.7874 37.5405 43.8365C37.5726 43.8856 37.6336 43.9483 37.681 44.0058C37.7285 44.0634 37.7369 44.0804 37.7691 44.1125C37.8204 44.1593 37.8741 44.2034 37.93 44.2447C37.9707 44.2751 38.0045 44.3107 38.0469 44.3395C38.1139 44.3811 38.1835 44.4184 38.2552 44.4513C38.2924 44.4699 38.3263 44.4936 38.3653 44.5106C38.433 44.535 38.502 44.5559 38.5719 44.5732C38.6196 44.591 38.6683 44.6063 38.7176 44.619C38.7752 44.6291 38.8378 44.6291 38.8971 44.6359C38.9628 44.6461 39.0289 44.6529 39.0953 44.6562C39.3798 44.6558 39.6605 44.5906 39.916 44.4656C40.1716 44.3406 40.3954 44.159 40.5705 43.9347C40.8279 43.6137 40.9689 43.2148 40.9702 42.8033V39.8783C40.9702 39.2652 40.938 38.6623 40.8838 38.0627C40.5998 34.9154 39.5724 31.8806 37.886 29.2081C36.8181 27.5175 35.5086 25.9923 33.999 24.6809L33.7348 24.4658C31.6783 22.7375 29.303 21.429 26.7432 20.6144C25.6849 20.2768 24.6007 20.0265 23.5015 19.8658C21.4799 19.5668 19.4251 19.5697 17.4043 19.8743C16.3061 20.0369 15.2231 20.289 14.166 20.628Z" fill="#F2D4AE"/>
<path d="M64.6327 20.2706V22.9534C64.6327 25.6193 64.067 27.9396 63.0153 29.8348C62.7324 30.3453 62.4084 30.8319 62.0465 31.2897C59.8972 33.9996 56.4963 35.5239 52.1723 35.5239H45.2926C44.785 35.5245 44.2979 35.3242 43.9376 34.9667C43.6244 34.6599 43.4284 34.2532 43.3835 33.817C43.3387 33.3809 43.4478 32.9427 43.692 32.5786C43.8681 32.3142 44.1068 32.0976 44.387 31.948C44.6672 31.7985 44.9801 31.7207 45.2977 31.7216H52.1774C54.9533 31.7216 57.1077 30.9425 58.5643 29.4571C58.5931 29.4284 58.6151 29.3979 58.6422 29.3691C59.1642 28.8163 59.5921 28.1818 59.909 27.4908C59.9497 27.4027 59.9819 27.3079 60.0174 27.2198C60.5256 26.0173 60.7881 24.5946 60.7881 22.9483V20.5704L60.8541 20.5569C61.3199 20.4722 61.784 20.4078 62.2497 20.3604C63.0412 20.2775 63.8373 20.2475 64.6327 20.2706Z" fill="#F2D4AE"/>
<path d="M47.2166 6.08401V3.80263H50.5549C52.9594 3.78147 55.2979 4.58888 57.1772 6.0891C59.0713 6.10416 60.9567 6.34582 62.7934 6.80891C62.4038 6.13974 61.956 5.50612 61.4554 4.91538C61.0278 4.41158 60.5642 3.93949 60.0683 3.50284C59.5678 3.06374 59.0363 2.66129 58.4779 2.29864C56.1156 0.780453 53.3629 -0.0180735 50.5549 0.000310425H45.2926C45.1789 0.00149021 45.0655 0.0128286 44.9539 0.0341861C44.8151 0.0573466 44.6793 0.0959762 44.5491 0.149355C44.4157 0.206964 44.289 0.279102 44.1714 0.364456C43.9257 0.538467 43.7251 0.768658 43.5863 1.03586C43.4476 1.30306 43.3747 1.59955 43.3737 1.90063V6.44477C43.9869 6.20539 44.6394 6.08248 45.2977 6.08233L47.2166 6.08401Z" fill="#F2D4AE"/>
<path d="M72.5896 18.9085L67.8016 18.1396C67.4627 17.6692 67.0878 17.2258 66.6804 16.8134L66.6634 16.7982C66.4015 16.5351 66.1254 16.2856 65.8352 16.0496L65.7793 16.0038C65.4148 15.7082 65.0318 15.4361 64.6327 15.1892L64.5345 15.1299C64.3278 15.0046 64.1178 14.8843 63.901 14.7709C63.7147 14.6726 63.5233 14.5778 63.3303 14.488C63.0423 14.3559 62.7493 14.2289 62.4462 14.1154C61.9028 13.9119 61.3473 13.7422 60.783 13.6073C60.4629 13.5311 60.1394 13.4616 59.8057 13.4057C59.0216 13.2751 58.2293 13.1993 57.4346 13.1788C57.2415 13.1788 57.0467 13.1669 56.8485 13.1669H45.2942C44.7869 13.1664 44.3002 12.9662 43.9393 12.6097C43.7605 12.4344 43.6186 12.2251 43.5217 11.9942C43.4249 11.7633 43.3751 11.5153 43.3753 11.2649C43.3753 11.2243 43.3855 11.187 43.3872 11.1481C43.414 10.7375 43.5733 10.3466 43.8411 10.0342C44.1089 9.72182 44.4708 9.5047 44.8725 9.41543C45.0129 9.38196 45.1567 9.36491 45.301 9.36463H56.8536C57.8771 9.36422 58.8992 9.43666 59.9124 9.58141C61.4347 9.79541 62.9236 10.2023 64.3431 10.7924C65.6321 11.3285 66.8441 12.0336 67.9472 12.8892C69.3053 13.943 70.4743 15.2202 71.404 16.6661C71.4328 16.7118 71.4599 16.7592 71.4887 16.8067C71.5937 16.976 71.6954 17.1454 71.7953 17.3148C71.8952 17.4841 71.9765 17.6349 72.0612 17.7975C72.1916 18.0414 72.3152 18.2869 72.4338 18.5393C72.4857 18.6658 72.5377 18.7888 72.5896 18.9085Z" fill="#F2D4AE"/>
<path d="M73.6118 30.8284C72.7006 34.2836 70.6309 37.3948 67.5636 39.8405C63.7613 42.8722 58.7429 44.6116 53.794 44.6116H38.5255V40.8093H53.794C57.8775 40.8093 62.0168 39.3781 65.1417 36.8817C65.7506 36.3979 66.3214 35.8679 66.8489 35.2964C68.3692 33.6752 69.4419 31.6868 69.9619 29.526L73.6118 30.8284Z" fill="#F2D4AE"/>
<path d="M85.942 12.6367C85.942 12.6469 85.942 12.657 85.942 12.6655C85.942 12.7045 85.942 12.7434 85.9539 12.7807C85.9657 12.8179 85.9539 12.8128 85.9539 12.8281L85.9742 12.9196C85.9734 12.9331 85.9734 12.9467 85.9742 12.9602V12.9771C85.9747 12.9845 85.9747 12.9918 85.9742 12.9992C85.9878 13.0449 85.9996 13.0889 86.0149 13.133L86.0403 13.1922V13.2075L86.0504 13.2295C86.0504 13.2532 86.0691 13.2769 86.0792 13.2989C86.1063 13.3565 86.1368 13.4107 86.169 13.4683L90.598 20.7952L90.7877 21.1119C92.149 20.8532 93.5273 20.6941 94.9118 20.636L90.0001 12.5063L94.0446 5.81964L103.58 21.5861C105.322 22.0554 107.015 22.6923 108.634 23.4881C108.642 23.4305 108.658 23.3746 108.661 23.3188C108.682 22.946 108.589 22.5757 108.395 22.2568L95.7044 1.21283C95.6444 1.11655 95.5758 1.02585 95.4995 0.941835C95.4825 0.921511 95.4639 0.901191 95.4453 0.88256C95.3702 0.803641 95.2886 0.731121 95.2014 0.665764H95.1895C95.1041 0.606186 95.0141 0.553517 94.9203 0.508253L94.8474 0.474377C94.7507 0.430326 94.6504 0.394627 94.5476 0.367674C94.5386 0.368479 94.5296 0.368479 94.5205 0.367674C94.4235 0.346142 94.325 0.331436 94.2258 0.323647H94.1462C94.0382 0.318819 93.93 0.323345 93.8227 0.337189H93.7973C93.6962 0.352674 93.5965 0.376474 93.4993 0.408331L93.418 0.435426C93.3105 0.473982 93.2068 0.522161 93.108 0.579384C92.8274 0.742787 92.5939 0.976219 92.4305 1.25686L92.4119 1.28396L88.381 7.95029L86.2029 11.5494C86.1724 11.6002 86.1453 11.651 86.1199 11.7035C86.1199 11.7035 86.1199 11.7035 86.1199 11.717C86.1199 11.7306 86.0979 11.7695 86.0877 11.7949C86.0775 11.8204 86.0623 11.8542 86.0504 11.883C86.0386 11.9118 86.0504 11.9135 86.0369 11.9271L86.0115 12.0117C86.0077 12.0266 86.0032 12.0413 85.9979 12.0558C85.9878 12.0981 85.9793 12.1422 85.9725 12.1845V12.1964C85.9725 12.2082 85.9725 12.2218 85.9725 12.2353V12.2827C85.9725 12.3047 85.9725 12.3268 85.9725 12.3488C85.9725 12.3708 85.9725 12.3945 85.9725 12.4165C85.9725 12.4385 85.9725 12.4792 85.9725 12.5097C85.9725 12.5402 85.9725 12.5707 85.9725 12.6011C85.9632 12.6137 85.953 12.6256 85.942 12.6367Z" fill="#F2D4AE"/>
<path d="M101.674 43.1437C101.707 43.1962 101.742 43.2453 101.779 43.2945L101.81 43.3351C101.83 43.3605 101.854 43.3825 101.876 43.4062C101.898 43.43 101.927 43.4655 101.956 43.4926L101.983 43.518L102.006 43.54C102.044 43.5739 102.083 43.6061 102.123 43.6366L102.184 43.6806C102.231 43.7142 102.28 43.7453 102.33 43.7738L102.349 43.7839C102.354 43.7883 102.359 43.7917 102.365 43.7941C102.396 43.811 102.428 43.8246 102.46 43.8398L102.565 43.8889L102.604 43.9025C102.66 43.9245 102.716 43.9432 102.774 43.9584H102.806H102.831H102.879C102.918 43.9584 102.955 43.9753 102.996 43.9804H103.045H103.055H103.082C103.141 43.9804 103.2 43.9906 103.261 43.9906H111.124C111.066 43.85 111.013 43.7077 110.968 43.5604C110.611 42.4116 110.138 41.3022 109.557 40.2492H104.35L99.3287 31.9502C97.7396 31.457 96.0904 31.1841 94.4272 31.1389L101.649 43.0878L101.674 43.1437Z" fill="#F2D4AE"/>
<path d="M87.9471 37.3373C87.9474 37.4953 87.9321 37.6531 87.9014 37.8081C87.8518 38.0876 87.7429 38.3532 87.5819 38.5869C87.4209 38.8207 87.2116 39.0171 86.9682 39.1631C86.8067 39.253 86.6317 39.316 86.4499 39.3494C86.3821 39.3599 86.3136 39.3661 86.245 39.368H86.2026L85.5522 39.4916L82.9592 35.5657H82.9813C82.6103 34.9644 82.2174 34.3801 81.8058 33.8246C77.89 28.5132 72.1993 25.1563 66.2544 24.6228C65.0743 24.515 63.8865 24.5224 62.7079 24.6448C62.2421 24.6922 61.7763 24.7549 61.3106 24.8413C61.1412 24.8718 60.9718 24.9073 60.8025 24.9429V20.519C63.0312 20.1487 65.3028 20.1144 67.5416 20.4174C70.2945 20.8112 72.9562 21.6884 75.4037 23.0087C75.7187 23.1781 76.0304 23.3475 76.342 23.5338C76.9179 23.8725 77.4824 24.2355 78.0357 24.6228C78.349 24.8413 78.6573 25.0649 78.9621 25.3003C82.0668 27.7078 84.6607 30.7099 86.5922 34.1311C86.9908 34.8312 87.3634 35.547 87.71 36.2787C87.868 36.6091 87.9491 36.971 87.9471 37.3373Z" fill="#F2D4AE"/>
<path d="M72.5893 18.9088L67.8013 18.1399C67.4624 17.6695 67.0875 17.2261 66.6801 16.8137L66.6631 16.7985C66.4012 16.5354 66.1251 16.2859 65.8349 16.0499L65.779 16.0042C66.2115 16.0369 66.6422 16.0832 67.0713 16.143C68.6811 16.3701 70.2623 16.7675 71.7882 17.3286C71.8797 17.4878 71.9694 17.6487 72.0541 17.8113C72.1845 18.0552 72.3082 18.3008 72.4267 18.5531C72.4832 18.6706 72.5374 18.7891 72.5893 18.9088Z" fill="#F2D4AE"/>
<path d="M72.3538 42.1103C72.4657 42.3504 72.6276 42.5639 72.8285 42.7365C73.0294 42.9091 73.2649 43.0369 73.5191 43.1113C73.6955 43.1641 73.8786 43.1909 74.0628 43.1909C74.1314 43.1895 74.1998 43.1839 74.2677 43.174H74.31L79.1607 43.1977L88.7961 43.2417H88.83C88.8977 43.2417 88.9638 43.2417 89.0281 43.2282L89.101 43.218C89.1552 43.2095 89.2077 43.1977 89.2602 43.1858L89.3194 43.1706L89.377 43.1502C89.5053 43.1102 89.6291 43.0568 89.7462 42.991L89.7666 42.9809L89.7937 42.9622C89.8242 42.9436 89.853 42.925 89.8801 42.9047L89.9546 42.8505L90.0037 42.8098L90.0206 42.7963C90.0477 42.7742 90.0731 42.7505 90.0985 42.7268L90.151 42.6743L90.2019 42.6201L90.2255 42.5947L90.2696 42.5388C90.2931 42.5112 90.3151 42.4823 90.3356 42.4524L90.3627 42.4135L90.3797 42.3881C90.3966 42.3593 90.4153 42.3322 90.4305 42.3051L90.4745 42.2238V42.2069L90.5033 42.1476C90.5169 42.1171 90.5304 42.0849 90.5423 42.0544L90.5609 42.0036C90.5609 42.0036 90.5609 41.9901 90.5694 41.9816L90.5795 41.9494L90.5999 41.8817L90.61 41.841L90.6202 41.8055C90.6211 41.7925 90.6211 41.7795 90.6202 41.7665C90.6251 41.7475 90.6291 41.7283 90.632 41.7089C90.632 41.6801 90.6422 41.6513 90.6473 41.6208C90.6524 41.5904 90.6473 41.5633 90.6473 41.5345C90.6473 41.5057 90.6473 41.465 90.6473 41.4295C90.6481 41.4165 90.6481 41.4035 90.6473 41.3905C90.6473 41.3786 90.6473 41.3685 90.6473 41.3566C90.6473 41.3448 90.6473 41.2821 90.6473 41.2448C90.6473 41.2076 90.6473 41.194 90.6473 41.1686C90.6473 41.1432 90.6388 41.1127 90.6337 41.0856C90.6287 41.0585 90.6337 41.0721 90.6337 41.0653C90.6337 41.0585 90.6236 41.0094 90.6168 40.9823C90.6105 40.9515 90.6026 40.9209 90.5931 40.8909C90.5931 40.8604 90.5761 40.8299 90.566 40.7994C90.5558 40.7689 90.5491 40.7486 90.5389 40.7232L90.4982 40.6233C90.4982 40.6029 90.4796 40.5843 90.4695 40.564L90.4373 40.503L90.4169 40.4641C90.4166 40.4596 90.4166 40.455 90.4169 40.4505V40.4336L88.5844 37.4053L86.3335 33.6792C86.2744 33.5832 86.2063 33.493 86.1302 33.4099L86.0743 33.3506C86 33.2708 85.9184 33.1982 85.8305 33.1338H85.8186C85.7338 33.0738 85.6436 33.0216 85.5493 32.978L85.4782 32.9441C85.3811 32.8995 85.2802 32.8638 85.1767 32.8374H85.153C85.0549 32.8152 84.9552 32.8004 84.8549 32.7934H84.777C84.6684 32.7886 84.5596 32.7931 84.4518 32.8069C84.4439 32.8061 84.436 32.8061 84.4281 32.8069C84.3268 32.8216 84.227 32.8454 84.13 32.8781L84.047 32.9052C83.941 32.9439 83.8385 32.9915 83.7405 33.0474C83.5283 33.1721 83.343 33.3375 83.1952 33.5342C83.0474 33.7309 82.94 33.9549 82.8792 34.1933C82.8184 34.4317 82.8055 34.6798 82.8411 34.9232C82.8767 35.1667 82.9602 35.4007 83.0867 35.6117L84.2316 37.5069L85.4494 39.519L80.492 39.4953L76.7659 39.4766C79.4351 33.5115 84.8498 29.1096 91.2062 27.5904C92.3527 27.3153 93.5204 27.1374 94.6969 27.0586C95.1643 27.0258 95.6341 27.0095 96.106 27.0095C97.1461 27.0099 98.1847 27.0852 99.2139 27.2347C100.756 27.456 102.27 27.8451 103.728 28.3949C106.7 29.5145 109.377 31.298 111.555 33.6095C113.733 35.9209 115.355 38.6993 116.296 41.7326C116.332 41.8424 116.378 41.9489 116.432 42.051C116.449 42.0832 116.471 42.1137 116.489 42.1442C116.529 42.2109 116.573 42.2748 116.622 42.3356C116.647 42.3678 116.674 42.3982 116.701 42.4287C116.755 42.4839 116.811 42.5359 116.871 42.5845C116.899 42.6083 116.928 42.6354 116.959 42.6574C117.028 42.7104 117.101 42.7585 117.177 42.8013C117.197 42.8132 117.218 42.8267 117.238 42.8369C117.337 42.8879 117.44 42.9304 117.546 42.9639C117.573 42.9724 117.602 42.9758 117.631 42.9843C117.711 43.0051 117.793 43.0209 117.875 43.0317C117.914 43.0317 117.955 43.0317 117.993 43.0418C118.032 43.052 118.071 43.0418 118.112 43.0418C118.153 43.0418 118.193 43.0418 118.232 43.0418H118.331C118.405 43.0325 118.479 43.019 118.552 43.0012L118.583 42.991C118.612 42.991 118.64 42.991 118.669 42.9741C119.133 42.8358 119.525 42.5222 119.762 42.0998C119.999 41.6774 120.062 41.1794 119.938 40.7113C119.938 40.6876 119.929 40.6622 119.923 40.6368C119.801 40.2456 119.665 39.8577 119.523 39.4733C119.099 38.3274 118.589 37.2149 117.999 36.1452C116.275 33.0256 113.903 30.3113 111.043 28.1849C110.497 27.7801 109.937 27.4007 109.366 27.0433C106.929 25.5269 104.249 24.4428 101.443 23.8389C101.273 23.8016 101.087 23.7627 100.908 23.7288C99.5617 23.472 98.1972 23.3242 96.8275 23.2867C96.5887 23.2867 96.3499 23.2732 96.1094 23.2732C94.9194 23.2733 93.7309 23.3571 92.5527 23.5239C88.7326 24.0486 85.089 25.4623 81.9147 27.6514C81.6369 27.8427 81.3608 28.0392 81.0898 28.2424C80.5851 28.6207 80.0968 29.0159 79.6248 29.428C79.3572 29.6634 79.0947 29.9006 78.8372 30.1461C76.2763 32.5877 74.2657 35.5475 72.9398 38.828C72.6756 39.4834 72.4317 40.1473 72.2336 40.8231C72.1083 41.2636 72.1462 41.7345 72.3403 42.1493L72.3538 42.1103Z" fill="#F2D4AE"/>
</svg>
